PathFileType	4	(X/Y/Z)	46_2_3_p0_0-349_filt_butterworth.trc
DataRate	CameraRate	NumFrames	NumMarkers	Units	OrigDataRate	OrigDataStartFrame	OrigNumFrames
60.0	60.0	7	27	m	60.0	130	349
Frame#	Time	RHip			RKnee			RAnkle			RBigToe			RSmallToe			RHeel			LHip			LKnee			LAnkle			LBigToe			LSmallToe			LHeel			Neck			Head			Nose			RShoulder			RElbow			RWrist			RThumb			RIndex			RPinky			LShoulder			LElbow			LWrist			LThumb			LIndex			LPinky			
		X1	Y1	Z1	X2	Y2	Z2	X3	Y3	Z3	X4	Y4	Z4	X5	Y5	Z5	X6	Y6	Z6	X7	Y7	Z7	X8	Y8	Z8	X9	Y9	Z9	X10	Y10	Z10	X11	Y11	Z11	X12	Y12	Z12	X13	Y13	Z13	X14	Y14	Z14	X15	Y15	Z15	X16	Y16	Z16	X17	Y17	Z17	X18	Y18	Z18	X19	Y19	Z19	X20	Y20	Z20	X21	Y21	Z21	X22	Y22	Z22	X23	Y23	Z23	X24	Y24	Z24	X25	Y25	Z25	X26	Y26	Z26	X27	Y27	Z27	
130	2.1666666666666665	0.36783153734457724	0.9058361925909171	0.47431489966744644	0.3381670363111786	0.5094503894094943	0.43875331517204214	0.3322230736445076	0.07169644172431999	0.4964374559458582	0.34907928092552487	0.06165996948041062	0.3186115357128996	0.42148025330571504	0.05284575560382097	0.35335194532168374	0.30958590479358344	-0.0067861880092753325	0.5815728866578668	0.2011717013067834	0.9104840293809384	0.44622456852499154	0.19760597450962156	0.49406870361504784	0.4705930332076159	0.1717139507311345	0.06631730478061798	0.5091977909392138	0.19752655645344236	0.06746028943767912	0.3083728597517564	0.14082387748612019	0.05699313680006059	0.3532334173712044	0.18671945632866677	-0.010747034333482508	0.5602486956326355	0.3135689652208113	1.4582902061552316	0.4262157746585409	0.34228677669118135	1.6942394696950451	0.32243166625140807	0.34003774753458316	1.5738700147590863	0.26813993617043164	0.4565947126291634	1.3765016098699665	0.4293389021349983	0.4853320080282318	1.1167348815559313	0.3951763317851888	0.4411661743056858	1.2115421944166003	0.26788700214427436	0.41455050981117353	1.3013437842052862	0.16387076606878614	0.44482306166095825	1.2944028263455685	0.09805748122844718	0.4268752758452454	1.2508254497147007	0.13880991706785759	0.15804003146005002	1.390438595161733	0.3963366830910796	0.11212357723966726	1.1339368777862047	0.3834449228049466	0.18994740615709227	1.2384299767264242	0.2535487417335709	0.2276711622006248	1.3015600377580916	0.16474059490626247	0.23816694006374045	1.2997210468216782	0.10194842559058663	0.2255985092430531	1.25726900877485	0.15095785027876896	
131	2.183333333333333	0.36859344525931226	0.9052521696178694	0.4750389389252352	0.33812999588134846	0.508958910242443	0.4390289798185328	0.3315673366995054	0.07116286607630706	0.4969351580703415	0.34905784072405655	0.0606640144413335	0.31852241953557664	0.42096465780725906	0.05269792464144127	0.3535001354763571	0.3096006711306674	-0.006968949791388623	0.5816984375386965	0.20215590875133282	0.910372934949336	0.44593222767617335	0.19814227587235983	0.49441969458386836	0.46915028456709795	0.17176549953527046	0.06605194927252443	0.5092577461673533	0.1976352362045255	0.06721323170087944	0.3084106566858514	0.14233652287906037	0.0576299114862574	0.35074034155453526	0.18674314263969533	-0.010981480996604315	0.5602417582600172	0.31394818964766447	1.4581733230618839	0.42757109918916014	0.34266115415356857	1.6945301265431991	0.3240439275507594	0.3401279178863894	1.5733207681831707	0.26791275960795313	0.4570558266763496	1.3762075024936264	0.42946240803520047	0.4853660521850608	1.116689680173584	0.395177987814327	0.44118745887840394	1.210508486697148	0.2681305146160793	0.4175583890085813	1.3008830442664536	0.16519046488174113	0.4452020515694065	1.2939297605228826	0.09832724177615713	0.4235322201539061	1.2503834195692278	0.1421100406618388	0.15923512701291212	1.3910711146229986	0.39687828150318455	0.11305657354455845	1.1344511632586765	0.384265380267224	0.1911755915872782	1.2393803698905952	0.2511542578235981	0.22857696387257395	1.3032405757016956	0.16405619264687077	0.23969222660551553	1.3012172004219038	0.09706602745902687	0.22671710967719547	1.2581112427610823	0.1474124334521695	
132	2.2	0.36936264573339106	0.9049242751109785	0.4755574845786726	0.338079503395629	0.5082891632692681	0.4396284151218694	0.3309320269997387	0.07027618407456965	0.49796502397878734	0.34905263287373295	0.05924306152950819	0.3181970221267745	0.41988694305316465	0.05194798077733942	0.3544869182070422	0.3096579496597321	-0.007301394319009134	0.5820919593766528	0.20324067907300716	0.9106229304397399	0.44546046840711084	0.19876918580390432	0.495143031112882	0.46713405749371745	0.17181077433847594	0.06587724642293256	0.5092899588800547	0.1977092488744902	0.06740462505481197	0.30837902555676994	0.14351860367790611	0.05820767106128039	0.34879702247537037	0.18677266299429462	-0.011195996327054772	0.5602636520372837	0.3144790860592167	1.4583804333863617	0.42719376867610864	0.3431086166599867	1.6946285383451414	0.3261968511077308	0.3404477429365288	1.5728287840057098	0.26761389863537954	0.4575756780543623	1.3756744722303706	0.4296478472437968	0.4853834765373988	1.1164098372882776	0.39519324129398	0.4411067322809723	1.209353299314969	0.26798033515829	0.4205320209118437	1.300107191805062	0.1666060209273438	0.4446645016683185	1.293309288724592	0.09823288231181546	0.41898004160368296	1.2495474107975713	0.14604474691251668	0.16062563279401265	1.3917917459840492	0.3973054428988429	0.1139983220584285	1.1352421296189354	0.3848938191349877	0.19234774528070012	1.2400613225157244	0.24889887055945664	0.22912505147072443	1.3052461820812973	0.1609218073360012	0.24062582155995282	1.3014896541033318	0.09375331920528271	0.2285254849561274	1.2574574019242608	0.14831047040946105	
133	2.216666666666667	0.37002945274306515	0.9049477220321591	0.47584651920125215	0.3380420900292126	0.5075186763607199	0.4402404730894668	0.33026855330960864	0.0690499871730137	0.499502826257343	0.3490675755335637	0.05761485734613302	0.31788198330016615	0.41830307530061467	0.050594648084927564	0.35630485902565273	0.3097577722752339	-0.007778838765931117	0.582744372348855	0.20438463409895097	0.9113577960768933	0.4448097792853656	0.19949261413154745	0.49627583884731774	0.46450654155101545	0.1718463354637352	0.06581418243271803	0.5092888154360837	0.19778216209355537	0.06794881724341034	0.30835694511314277	0.14398846298150916	0.058293798581658604	0.3480949928004772	0.18681168920196062	-0.011374435194930733	0.5603140868909986	0.31515432977202285	1.4588134859405024	0.4252422381780726	0.34366670255667925	1.6945788888227449	0.32895128894751713	0.34102329875086945	1.572489673551561	0.2674724526818221	0.4582083476229276	1.3749729122753847	0.42985500405467597	0.48533990572276137	1.115846640308124	0.39532288447090375	0.44099547135608475	1.2081102627659264	0.26762877101850996	0.4229559296620298	1.2989139029809371	0.16764051906386357	0.4427450140725665	1.29232318030986	0.09811644892793511	0.41363634422168766	1.2482172797155782	0.15022091942817137	0.16215459500795826	1.3925816290681035	0.3971843891692277	0.11464059571629673	1.136074717580034	0.3850941719059685	0.19360917003814665	1.2404999818057887	0.247260578294559	0.22916027905234673	1.3075258895822375	0.15608059313730419	0.24107973856220982	1.3004775348102557	0.0927780161784078	0.23114696367108437	1.255699567327574	0.1541930840172483	
134	2.2333333333333334	0.3706436411011203	0.9053010180175562	0.4759260881373214	0.3380740660562757	0.5067892500468597	0.4405135716090625	0.3295757428886384	0.0675949790832846	0.5013736100276446	0.3490983282321053	0.0560428800813987	0.31801080885146443	0.41643596970357544	0.048813216556693934	0.3587235827461527	0.30990210558865405	-0.00839875341309949	0.5836585473724145	0.20553800432858604	0.9125734811404802	0.4439914804653123	0.20031293010604007	0.4977871947706153	0.4612889540972666	0.17186974624837079	0.0658705681334873	0.5092532623558252	0.19782159774499908	0.06860213351457235	0.3084274064630629	0.14357287845611355	0.05760099892225149	0.3489873977488537	0.18686327050380994	-0.011497655412271005	0.5603892802594954	0.3159513556946706	1.4592181030674762	0.4224269147580248	0.34435572081459587	1.694418963180262	0.33216334900124134	0.341824108808631	1.5722328733634348	0.2678973035333629	0.4590189449579746	1.3742523758704284	0.429725760458462	0.48519286824258645	1.1150268544384299	0.3956437188773727	0.4408728715459522	1.206979712382687	0.2669134847768452	0.4239896799813072	1.2971427996237375	0.16782146695484756	0.4389519625743743	1.2906514408857903	0.09923596174946292	0.4081996682748539	1.246587988340677	0.1541044627208449	0.16372985267965154	1.3934128697471972	0.3962199812939652	0.11488661104010797	1.1368088711485298	0.3847415780321764	0.194988801451546	1.2404743250629915	0.24629903636551403	0.22889698689449275	1.3090840162461403	0.1506198743177797	0.24117848912012602	1.298266962697507	0.09442056117863926	0.23416572867843768	1.2528091805608572	0.16361206387062027	
135	2.25	0.3713858413402373	0.9058761362474004	0.4758457276918747	0.3382315491402212	0.5062359209930567	0.44024400630852817	0.32894109459922927	0.0660022717523771	0.5033866868381581	0.34914278122454057	0.05485762747614612	0.3189018508660135	0.414565902934436	0.04685425897052921	0.36143062602092724	0.3100937154606512	-0.009159649537715326	0.5848419544584486	0.20665132276213186	0.9141308756944881	0.4430290823286888	0.2012645233722612	0.4995921922077745	0.4575188068000965	0.17188369397785377	0.06600485357469425	0.5091966783496483	0.19780610813294647	0.06914946836222416	0.30860178789565	0.14245383133008988	0.056199930134580495	0.35117396245324783	0.18693108683987814	-0.011549844813914096	0.5604901448958701	0.3169441718452806	1.4592627373496436	0.4198763767860993	0.34515364799643466	1.6941104086469159	0.33545053314411993	0.3427661044527103	1.571813843394303	0.26920702345415354	0.4600454488694235	1.373672261492115	0.4288975325506591	0.48498914372170177	1.1141067009498327	0.3960341858996733	0.44072224339058647	1.2062954549785	0.26556693446698076	0.42295118053163644	1.29474763358174	0.16710602434766697	0.4330730368552627	1.2883482033874125	0.10278851473990122	0.40334497870272357	1.2450983016293877	0.157428424071458	0.16519209891162884	1.3941922971209801	0.3944447882219011	0.11478010917873527	1.137352815534642	0.38389614177037923	0.19641941152652248	1.2396208676046183	0.24577875685682637	0.2288846417383535	1.3087286512274268	0.14573014538199883	0.24121410182283903	1.2951637668849716	0.09822742315209311	0.23708251172208783	1.2484310977719306	0.17488817755056738	
136	2.2666666666666666	0.3724287061140472	0.906533641940777	0.4756950096938459	0.33853149177307285	0.5058910049569135	0.43938451827253927	0.328471865391746	0.0643141059211279	0.5054323999536557	0.3492200486027745	0.05438862322312968	0.32056402581931287	0.4129519763510159	0.044997049205302765	0.3640641148194101	0.3103300649615066	-0.010048586092780708	0.586277692752005	0.20769291023215278	0.9158375624503777	0.44196709974057913	0.2024011024072417	0.5015749915861611	0.4533284195521482	0.17189660415418398	0.06611370730351089	0.5091512226203518	0.19773537384049744	0.06960067171855008	0.30885385059457066	0.14100700280107564	0.05438730122661621	0.3539808232487927	0.1870177773287494	-0.01153253244933631	0.5606275639204793	0.31822284976409376	1.458637328233135	0.4185693839835667	0.34608392206389726	1.6935454620500001	0.3382983809275524	0.343738686910383	1.5709628948404868	0.27135226917005917	0.4611882408783574	1.3732942324045423	0.42773019660595274	0.48490335477568847	1.1133892470324558	0.39611564192038295	0.440518476444623	1.2063718580976852	0.2635942158691178	0.4200986608319327	1.2920996859456646	0.1660439703571504	0.42545437998449015	1.2859925757294097	0.10903743581149333	0.39953236860348373	1.2442075913142447	0.16013622823135043	0.16642969596345913	1.394782548090319	0.3921260247251177	0.1143791643078184	1.1376342637639123	0.3830151473929441	0.1978306299377645	1.2376110123455963	0.24542392972649346	0.22966901022027247	1.3060144988500308	0.1424128589176172	0.24163911379000036	1.2916108732713323	0.1032482314883543	0.2396848493303641	1.242305530068948	0.18680242869786756	
